<svg width="184" height="67" viewBox="0 0 184 67" fill="none" xmlns="http://www.w3.org/2000/svg">
<path d="M8 24.2C8 14.1484 16.0096 6 25.89 6V62C16.0096 62 8 53.8516 8 43.8V24.2Z" fill="#0066F5"/>
<path d="M47.2203 43.8C47.2203 53.8516 39.2107 62 29.3304 62V23.5C39.2107 23.5 47.2203 31.6484 47.2203 41.7V43.8Z" fill="#009DDD"/>
<path d="M60.1868 57.1V34.1909H64.8709V42.8042H65.0138C65.2191 42.3418 65.5159 41.872 65.9044 41.3947C66.3003 40.91 66.8134 40.5073 67.4438 40.1866C68.0816 39.8585 68.8732 39.6945 69.8189 39.6945C71.0504 39.6945 72.1866 40.0226 73.2275 40.6788C74.2684 41.3276 75.1004 42.3083 75.7235 43.6208C76.3465 44.9258 76.6581 46.5627 76.6581 48.5315C76.6581 50.448 76.3539 52.0663 75.7455 53.3862C75.1444 54.6987 74.3234 55.6943 73.2825 56.3729C72.2489 57.0441 71.0907 57.3797 69.8079 57.3797C68.8989 57.3797 68.1255 57.2268 67.4878 56.921C66.8574 56.6153 66.3406 56.2312 65.9374 55.7689C65.5343 55.299 65.2264 54.8255 65.0138 54.3482H64.8049V57.1H60.1868ZM64.7719 48.5091C64.7719 49.5308 64.9112 50.4219 65.1897 51.1826C65.4683 51.9432 65.8715 52.5361 66.3993 52.9611C66.927 53.3788 67.5684 53.5876 68.3235 53.5876C69.0858 53.5876 69.7309 53.375 70.2587 52.95C70.7865 52.5174 71.186 51.9208 71.4572 51.1602C71.7358 50.3921 71.875 49.5084 71.875 48.5091C71.875 47.5173 71.7394 46.6447 71.4682 45.8915C71.197 45.1384 70.7975 44.5492 70.2697 44.1241C69.7419 43.6991 69.0932 43.4865 68.3235 43.4865C67.5611 43.4865 66.916 43.6916 66.3883 44.1018C65.8678 44.5119 65.4683 45.0936 65.1897 45.8468C64.9112 46.6 64.7719 47.4874 64.7719 48.5091Z" fill="black"/>
<path d="M84.5996 57.4244C83.522 57.4244 82.5618 57.2342 81.7188 56.8539C80.8758 56.4661 80.2087 55.8956 79.7176 55.1424C79.2338 54.3818 78.9919 53.4347 78.9919 52.3012C78.9919 51.3466 79.1642 50.545 79.5087 49.8962C79.8532 49.2474 80.3223 48.7254 80.9161 48.3301C81.5099 47.9349 82.1843 47.6366 82.9393 47.4352C83.7016 47.2339 84.5006 47.0922 85.3363 47.0102C86.3186 46.9058 87.1103 46.8088 87.7113 46.7193C88.3124 46.6224 88.7486 46.4807 89.0198 46.2942C89.291 46.1078 89.4267 45.8319 89.4267 45.4665V45.3994C89.4267 44.6909 89.2067 44.1428 88.7669 43.755C88.3344 43.3672 87.7187 43.1733 86.9197 43.1733C86.0767 43.1733 85.406 43.3635 84.9075 43.7438C84.409 44.1167 84.0792 44.5865 83.9179 45.1533L79.5856 44.7953C79.8056 43.7513 80.238 42.8489 80.8831 42.0883C81.5282 41.3202 82.3602 40.731 83.3791 40.3209C84.4054 39.9033 85.5929 39.6945 86.9417 39.6945C87.88 39.6945 88.7779 39.8063 89.6356 40.03C90.5006 40.2538 91.2666 40.6005 91.9336 41.0703C92.608 41.5402 93.1395 42.1442 93.528 42.8825C93.9165 43.6133 94.1107 44.4896 94.1107 45.5112V57.1H89.6686V54.7174H89.5366C89.2654 55.2543 88.9025 55.7278 88.4481 56.138C87.9936 56.5407 87.4475 56.8576 86.8097 57.0888C86.172 57.3125 85.4353 57.4244 84.5996 57.4244ZM85.9411 54.1357C86.6301 54.1357 87.2385 53.9977 87.7663 53.7218C88.2941 53.4384 88.7083 53.0581 89.0088 52.5808C89.3094 52.1036 89.4596 51.5629 89.4596 50.9588V49.1355C89.313 49.2325 89.1114 49.3219 88.8549 49.404C88.6057 49.4785 88.3234 49.5494 88.0082 49.6165C87.693 49.6762 87.3778 49.7321 87.0626 49.7843C86.7474 49.829 86.4615 49.8701 86.205 49.9073C85.6552 49.9894 85.175 50.1199 84.7645 50.2989C84.354 50.4778 84.0352 50.7202 83.8079 51.026C83.5807 51.3243 83.4671 51.6971 83.4671 52.1446C83.4671 52.7934 83.698 53.2893 84.1598 53.6323C84.6289 53.9679 85.2227 54.1357 85.9411 54.1357Z" fill="black"/>
<path d="M102.429 47.1668V57.1H97.7448V39.9182H102.209V42.9496H102.407C102.781 41.9503 103.407 41.1598 104.287 40.5782C105.167 39.989 106.233 39.6945 107.487 39.6945C108.66 39.6945 109.682 39.9555 110.555 40.4775C111.427 40.9995 112.105 41.7452 112.589 42.7147C113.073 43.6767 113.314 44.8251 113.314 46.16V57.1H108.63V47.0102C108.638 45.9587 108.374 45.1384 107.839 44.5492C107.304 43.9526 106.567 43.6543 105.629 43.6543C104.998 43.6543 104.441 43.7923 103.957 44.0682C103.481 44.3441 103.107 44.7468 102.836 45.2763C102.572 45.7983 102.436 46.4285 102.429 47.1668Z" fill="black"/>
<path d="M121.25 52.1558L121.261 46.4397H121.943L127.353 39.9182H132.73L125.462 48.5538H124.351L121.25 52.1558ZM117.006 57.1V34.1909H121.69V57.1H117.006ZM127.562 57.1L122.592 49.6165L125.715 46.2495L133.049 57.1H127.562Z" fill="black"/>
<path d="M135.743 57.1V39.9182H137.645V42.5581H137.821C138.158 41.6707 138.719 40.9734 139.503 40.4663C140.295 39.9517 141.244 39.6945 142.351 39.6945C143.516 39.6945 144.473 39.9741 145.221 40.5334C145.976 41.0853 146.54 41.8459 146.914 42.8154H147.057C147.438 41.8608 148.058 41.1039 148.915 40.5446C149.78 39.9778 150.828 39.6945 152.06 39.6945C153.629 39.6945 154.868 40.1978 155.776 41.2046C156.685 42.2039 157.14 43.6655 157.14 45.5895V57.1H155.183V45.5895C155.183 44.2323 154.842 43.2143 154.16 42.5357C153.478 41.8571 152.58 41.5178 151.466 41.5178C150.176 41.5178 149.183 41.9205 148.486 42.7259C147.79 43.5313 147.442 44.5529 147.442 45.7909V57.1H145.441V45.4105C145.441 44.2472 145.122 43.3076 144.484 42.5917C143.846 41.8757 142.948 41.5178 141.79 41.5178C141.013 41.5178 140.313 41.7117 139.69 42.0995C139.074 42.4873 138.587 43.0279 138.228 43.7214C137.876 44.4075 137.7 45.198 137.7 46.0929V57.1H135.743Z" fill="black"/>
<path d="M169.15 57.458C167.574 57.458 166.21 57.0851 165.059 56.3393C163.909 55.5862 163.018 54.5458 162.388 53.2184C161.764 51.8836 161.453 50.3473 161.453 48.6098C161.453 46.8797 161.764 45.3434 162.388 44.0011C163.018 42.6513 163.887 41.5961 164.993 40.8354C166.108 40.0673 167.394 39.6833 168.853 39.6833C169.769 39.6833 170.653 39.8548 171.503 40.1978C172.353 40.5334 173.116 41.0517 173.79 41.7527C174.472 42.4462 175.01 43.3225 175.406 44.3814C175.802 45.4329 176 46.6783 176 48.1176V49.102H162.805V47.3457H173.999C173.999 46.242 173.779 45.2502 173.339 44.3702C172.907 43.4828 172.302 42.7818 171.525 42.2673C170.755 41.7527 169.865 41.4954 168.853 41.4954C167.783 41.4954 166.841 41.7863 166.027 42.3679C165.213 42.9496 164.576 43.7177 164.114 44.6723C163.659 45.6268 163.428 46.6708 163.421 47.8044V48.8559C163.421 50.2206 163.652 51.4137 164.114 52.4354C164.583 53.4496 165.246 54.2364 166.104 54.7957C166.962 55.355 167.977 55.6346 169.15 55.6346C169.949 55.6346 170.649 55.5078 171.25 55.2543C171.858 55.0007 172.368 54.6614 172.778 54.2364C173.196 53.8038 173.511 53.3303 173.724 52.8157L175.582 53.431C175.326 54.1543 174.904 54.8218 174.318 55.4333C173.739 56.0448 173.013 56.537 172.141 56.9098C171.276 57.2752 170.279 57.458 169.15 57.458Z" fill="black"/>
</svg>
