<svg width="56" height="56" viewBox="0 0 56 56" fill="none" xmlns="http://www.w3.org/2000/svg">
<rect width="56" height="56" rx="14" fill="#B8EAFF"/>
<path d="M39.3082 15.2001H16.6919C15.8694 15.2001 15.2001 15.8694 15.2001 16.6919V33.5069C15.2001 34.3294 15.8694 34.9988 16.6919 34.9988H23.3827C23.2602 38.665 20.8382 39.9671 20.4272 40.1601H18.4407C18.2638 40.1601 18.1207 40.3032 18.1207 40.4801C18.1207 40.6569 18.2638 40.8001 18.4407 40.8001H37.5594C37.7363 40.8001 37.8794 40.6569 37.8794 40.4801C37.8794 40.3032 37.7363 40.1601 37.5594 40.1601H35.575C35.1944 39.9777 32.7425 38.6508 32.6177 34.9988H39.3082C40.1307 34.9988 40.8001 34.3294 40.8001 33.5069V16.6919C40.8001 15.8694 40.1307 15.2001 39.3082 15.2001ZM34.3838 40.1601H21.6163C22.5937 39.3945 23.9434 37.8286 24.0287 34.9988H31.9714C32.0567 37.8286 33.4064 39.3945 34.3838 40.1601ZM40.1601 33.5069C40.1601 33.9766 39.7779 34.3588 39.3082 34.3588H16.6919C16.2223 34.3588 15.8401 33.9766 15.8401 33.5069V16.6919C15.8401 16.2223 16.2223 15.8401 16.6919 15.8401H39.3082C39.7779 15.8401 40.1601 16.2223 40.1601 16.6919V33.5069Z" fill="#006C99" stroke="#008FCC" stroke-width="0.4"/>
<path d="M28.0346 24.7795H27.9653C27.2018 24.7795 26.5809 24.161 26.5809 23.401C26.5809 22.641 27.2018 22.0229 27.9653 22.0229C28.7287 22.0229 29.3496 22.641 29.3496 23.401C29.3496 23.5779 29.4927 23.721 29.6696 23.721C29.8465 23.721 29.9896 23.5779 29.9896 23.401C29.9896 22.409 29.2674 21.5838 28.3199 21.4159V20.9642C28.3199 20.7873 28.1768 20.6442 27.9999 20.6442C27.8231 20.6442 27.6799 20.7873 27.6799 20.9642V21.4053C26.6987 21.5443 25.9409 22.385 25.9409 23.401C25.9409 24.5138 26.849 25.4195 27.9653 25.4195H28.0346C28.7981 25.4195 29.419 26.0376 29.419 26.7976C29.419 27.5576 28.7981 28.176 28.0346 28.176C27.2712 28.176 26.6503 27.5576 26.6503 26.7976C26.6503 26.6207 26.5071 26.4776 26.3303 26.4776C26.1534 26.4776 26.0103 26.6207 26.0103 26.7976C26.0103 27.7899 26.7325 28.6151 27.6799 28.783V29.2348C27.6799 29.4116 27.8231 29.5548 27.9999 29.5548C28.1768 29.5548 28.3199 29.4116 28.3199 29.2348V28.7936C29.3012 28.6547 30.059 27.8139 30.059 26.7976C30.059 25.6848 29.1509 24.7795 28.0346 24.7795Z" fill="#006C99" stroke="#008FCC" stroke-width="0.4"/>
<path d="M28 18.4568C24.3372 18.4568 21.3575 21.4365 21.3575 25.0993C21.3575 28.7621 24.3372 31.7418 28 31.7418C31.6629 31.7418 34.6425 28.7621 34.6425 25.0993C34.6425 21.4365 31.6629 18.4568 28 18.4568ZM28 31.1018C24.6904 31.1018 21.9975 28.409 21.9975 25.0993C21.9975 21.7896 24.6904 19.0968 28 19.0968C31.3097 19.0968 34.0025 21.7896 34.0025 25.0993C34.0025 28.409 31.3097 31.1018 28 31.1018Z" fill="#006C99" stroke="#008FCC" stroke-width="0.4"/>
</svg>
