<svg width="855" height="309" viewBox="0 0 855 309" fill="none" xmlns="http://www.w3.org/2000/svg">
<g opacity="0.75" filter="url(#filter0_d_74_36)">
<path d="M122.502 54.3105C141.206 54.3105 155.848 59.3464 166.428 69.418C177.007 79.4896 182.297 93.2852 182.297 110.805C182.297 127.816 176.923 141.485 166.174 151.811C155.425 162.051 140.572 167.172 121.613 167.172H92.541V221H50.3926V54.3105H122.502ZM113.869 131.244C122.163 131.244 128.215 129.128 132.023 124.896C135.832 120.665 137.736 115.714 137.736 110.043C137.736 105.388 135.832 101.029 132.023 96.9668C128.215 92.8197 122.163 90.7461 113.869 90.7461H92.541V131.244H113.869ZM259.743 101.918C263.721 101.918 267.276 102.257 270.407 102.934V138.1L265.456 137.846C255.046 137.846 247.048 140.512 241.462 145.844C235.961 151.091 233.21 158.539 233.21 168.188V221H192.839V102.934H229.782L232.448 118.041C234.395 112.709 237.78 108.689 242.605 105.98C247.429 103.272 253.142 101.918 259.743 101.918ZM303.42 88.9688C295.972 88.9688 289.667 86.5143 284.504 81.6055C279.426 76.612 276.887 70.6452 276.887 63.7051C276.887 56.5957 279.426 50.6289 284.504 45.8047C289.667 40.8958 295.972 38.4414 303.42 38.4414C310.868 38.4414 317.089 40.8958 322.082 45.8047C327.161 50.6289 329.7 56.5957 329.7 63.7051C329.7 70.6452 327.161 76.612 322.082 81.6055C317.089 86.5143 310.868 88.9688 303.42 88.9688ZM283.108 102.934H323.479V221H283.108V102.934ZM338.718 161.713C338.718 149.271 341.384 138.269 346.716 128.705C352.133 119.141 359.75 111.778 369.568 106.615C379.386 101.368 390.6 98.7441 403.211 98.7441C414.806 98.7441 425.216 100.945 434.441 105.346C443.666 109.662 450.945 115.798 456.277 123.754C461.694 131.71 464.656 140.808 465.164 151.049H424.031C422.846 145.463 420.307 141.316 416.414 138.607C412.52 135.814 407.95 134.418 402.703 134.418C395.763 134.418 390.219 136.957 386.072 142.035C381.925 147.029 379.851 153.673 379.851 161.967C379.851 170.092 381.925 176.651 386.072 181.645C390.219 186.553 395.763 189.008 402.703 189.008C408.289 189.008 413.028 187.484 416.921 184.438C420.815 181.391 423.184 177.455 424.031 172.631H465.164C464.487 182.872 461.397 191.885 455.896 199.672C450.479 207.458 443.201 213.552 434.06 217.953C425.004 222.27 414.721 224.428 403.211 224.428C390.515 224.428 379.259 221.846 369.441 216.684C359.708 211.436 352.133 204.115 346.716 194.721C341.384 185.242 338.718 174.239 338.718 161.713ZM500.716 88.9688C493.268 88.9688 486.962 86.5143 481.8 81.6055C476.721 76.612 474.182 70.6452 474.182 63.7051C474.182 56.5957 476.721 50.6289 481.8 45.8047C486.962 40.8958 493.268 38.4414 500.716 38.4414C508.164 38.4414 514.384 40.8958 519.378 45.8047C524.456 50.6289 526.995 56.5957 526.995 63.7051C526.995 70.6452 524.456 76.612 519.378 81.6055C514.384 86.5143 508.164 88.9688 500.716 88.9688ZM480.403 102.934H520.774V221H480.403V102.934ZM613.328 98.7441C627.378 98.7441 638.338 103.23 646.209 112.201C654.08 121.088 658.016 132.895 658.016 147.621V221H617.771V157.27C617.771 142.543 611.762 135.18 599.744 135.18C587.472 135.18 581.336 142.289 581.336 156.508V221H541.219V102.934H574.861L576.893 114.867C580.532 109.874 585.61 105.938 592.127 103.061C598.644 100.183 605.711 98.7441 613.328 98.7441ZM804.144 102.934V221.508C804.144 233.441 801.478 243.936 796.146 252.992C790.898 262.133 783.239 269.158 773.167 274.066C763.096 279.06 751.12 281.557 737.239 281.557C725.306 281.557 714.557 279.356 704.993 274.955C695.514 270.554 687.897 264.333 682.142 256.293C676.471 248.337 673.255 239.154 672.493 228.744H712.611C713.626 234.669 716.377 239.07 720.862 241.947C725.433 244.825 730.892 246.264 737.239 246.264C745.534 246.264 751.966 244.148 756.536 239.916C761.191 235.769 763.519 230.225 763.519 223.285V207.162C760.218 210.971 755.478 214.102 749.3 216.557C743.206 219.011 736.435 220.238 728.987 220.238C718.239 220.238 708.548 217.784 699.915 212.875C691.367 207.882 684.596 200.899 679.603 191.928C674.694 182.872 672.239 172.377 672.239 160.443C672.239 148.171 674.736 137.38 679.73 128.07C684.808 118.76 691.663 111.566 700.296 106.488C709.014 101.326 718.662 98.7441 729.241 98.7441C736.859 98.7441 743.841 100.056 750.189 102.68C756.536 105.303 761.318 108.773 764.534 113.09L766.439 102.934H804.144ZM737.874 185.326C744.73 185.326 750.612 182.914 755.521 178.09C760.514 173.266 763.011 167.045 763.011 159.428C763.011 151.641 760.472 145.421 755.394 140.766C750.4 136.026 744.433 133.656 737.493 133.656C730.384 133.656 724.586 136.068 720.101 140.893C715.615 145.632 713.372 151.811 713.372 159.428C713.372 167.214 715.7 173.477 720.355 178.217C725.094 182.956 730.934 185.326 737.874 185.326Z" fill="white"/>
</g>
<defs>
<filter id="filter0_d_74_36" x="0.392578" y="0.441406" width="853.751" height="343.115" filterUnits="userSpaceOnUse" color-interpolation-filters="sRGB">
<feFlood flood-opacity="0" result="BackgroundImageFix"/>
<feColorMatrix in="SourceAlpha" type="matrix" values="0 0 0 0 0 0 0 0 0 0 0 0 0 0 0 0 0 0 127 0" result="hardAlpha"/>
<feOffset dy="12"/>
<feGaussianBlur stdDeviation="25"/>
<feComposite in2="hardAlpha" operator="out"/>
<feColorMatrix type="matrix" values="0 0 0 0 0.94025 0 0 0 0 0.99975 0 0 0 0 0.96762 0 0 0 1 0"/>
<feBlend mode="normal" in2="BackgroundImageFix" result="effect1_dropShadow_74_36"/>
<feBlend mode="normal" in="SourceGraphic" in2="effect1_dropShadow_74_36" result="shape"/>
</filter>
</defs>
</svg>
