<svg width="153" height="64" viewBox="0 0 153 64" fill="none" xmlns="http://www.w3.org/2000/svg">
<path d="M4.02344 7.54102V10.5977H8.83789L8.81836 12.8633H4.02344V18H1.41602V5.17773H9.75586V7.54102H4.02344ZM10.0297 13.498C10.0297 12.5801 10.2348 11.763 10.6449 11.0469C11.0616 10.3242 11.6443 9.76107 12.393 9.35742C13.1482 8.94727 14.0043 8.74219 14.9613 8.74219C15.9184 8.74219 16.7745 8.94727 17.5297 9.35742C18.2849 9.76107 18.8676 10.3242 19.2777 11.0469C19.6944 11.763 19.9027 12.5801 19.9027 13.498C19.9027 14.416 19.6944 15.2363 19.2777 15.959C18.8676 16.6816 18.2849 17.248 17.5297 17.6582C16.781 18.0618 15.9249 18.2637 14.9613 18.2637C14.0043 18.2637 13.1514 18.0618 12.4027 17.6582C11.6605 17.248 11.0779 16.6849 10.6547 15.9688C10.238 15.2461 10.0297 14.4225 10.0297 13.498ZM12.5688 13.498C12.5688 14.2337 12.7901 14.8457 13.2328 15.334C13.682 15.8158 14.2582 16.0566 14.9613 16.0566C15.671 16.0566 16.2471 15.8158 16.6898 15.334C17.1391 14.8457 17.3637 14.2337 17.3637 13.498C17.3637 12.7493 17.1423 12.1406 16.6996 11.6719C16.2634 11.1966 15.684 10.959 14.9613 10.959C14.2517 10.959 13.6755 11.1966 13.2328 11.6719C12.7901 12.1471 12.5688 12.7559 12.5688 13.498ZM21.3777 4.2793H23.8777V18H21.3777V4.2793ZM25.802 4.2793H28.302V18H25.802V4.2793ZM29.7477 13.498C29.7477 12.5801 29.9527 11.763 30.3629 11.0469C30.7796 10.3242 31.3622 9.76107 32.1109 9.35742C32.8661 8.94727 33.7223 8.74219 34.6793 8.74219C35.6363 8.74219 36.4924 8.94727 37.2477 9.35742C38.0029 9.76107 38.5855 10.3242 38.9957 11.0469C39.4124 11.763 39.6207 12.5801 39.6207 13.498C39.6207 14.416 39.4124 15.2363 38.9957 15.959C38.5855 16.6816 38.0029 17.248 37.2477 17.6582C36.499 18.0618 35.6428 18.2637 34.6793 18.2637C33.7223 18.2637 32.8694 18.0618 32.1207 17.6582C31.3785 17.248 30.7958 16.6849 30.3727 15.9688C29.956 15.2461 29.7477 14.4225 29.7477 13.498ZM32.2867 13.498C32.2867 14.2337 32.5081 14.8457 32.9508 15.334C33.4 15.8158 33.9762 16.0566 34.6793 16.0566C35.3889 16.0566 35.9651 15.8158 36.4078 15.334C36.857 14.8457 37.0816 14.2337 37.0816 13.498C37.0816 12.7493 36.8603 12.1406 36.4176 11.6719C35.9814 11.1966 35.402 10.959 34.6793 10.959C33.9697 10.959 33.3935 11.1966 32.9508 11.6719C32.5081 12.1471 32.2867 12.7559 32.2867 13.498ZM42.502 9.03516L43.1855 11.3203C43.6413 12.8828 43.9408 14.0091 44.084 14.6992C44.416 13.5664 44.7383 12.4824 45.0508 11.4473C45.3633 10.4056 45.5944 9.6569 45.7441 9.20117H48.3613C48.5111 9.66992 48.7487 10.487 49.0742 11.6523C49.3997 12.8177 49.6829 13.8854 49.9238 14.8555C50.1387 13.9896 50.4512 12.8568 50.8613 11.457L51.6035 9.03516H54.2402L51.0859 18H48.6641C48.2539 16.6523 47.8958 15.4349 47.5898 14.3477C47.2904 13.2604 47.1081 12.5703 47.043 12.2773C46.6458 13.8138 46.0859 15.7214 45.3633 18H42.8242L39.8262 9.03516H42.502ZM59.8465 5.17773H62.4441V13.1953C62.4441 14.1133 62.7078 14.7936 63.2352 15.2363C63.7625 15.679 64.4461 15.9004 65.2859 15.9004C66.1779 15.9004 66.8777 15.6725 67.3855 15.2168C67.8934 14.7546 68.1473 14.0807 68.1473 13.1953V5.17773H70.7449V13.3027C70.7449 14.3574 70.5105 15.2591 70.0418 16.0078C69.5796 16.75 68.9383 17.3132 68.118 17.6973C67.2977 18.0749 66.3536 18.2637 65.2859 18.2637C63.6323 18.2637 62.3107 17.8275 61.3211 16.9551C60.338 16.0762 59.8465 14.8587 59.8465 13.3027V5.17773ZM76.1652 18.2637C75.0324 18.2637 74.1112 17.9967 73.4016 17.4629C72.6984 16.929 72.3143 16.2161 72.2492 15.3242H74.7102C74.7232 15.6693 74.8632 15.9395 75.1301 16.1348C75.397 16.3236 75.7355 16.418 76.1457 16.418C76.5298 16.418 76.8358 16.3431 77.0637 16.1934C77.2915 16.0371 77.4055 15.819 77.4055 15.5391C77.4055 15.2591 77.3176 15.0605 77.1418 14.9434C76.9725 14.8197 76.7414 14.7253 76.4484 14.6602L74.9641 14.3184C74.1112 14.1165 73.4797 13.791 73.0695 13.3418C72.6659 12.8861 72.4641 12.3327 72.4641 11.6816C72.4641 10.8027 72.7994 10.0931 73.4699 9.55273C74.147 9.01237 75.0324 8.74219 76.1262 8.74219C77.1939 8.74219 78.063 9.00911 78.7336 9.54297C79.4107 10.0768 79.7622 10.7767 79.7883 11.6426H77.3469C77.3339 11.3236 77.2134 11.0697 76.9855 10.8809C76.7577 10.6921 76.4517 10.5977 76.0676 10.5977C75.7355 10.5977 75.4686 10.6725 75.2668 10.8223C75.065 10.9655 74.9641 11.1706 74.9641 11.4375C74.9641 11.6914 75.0422 11.8737 75.1984 11.9844C75.3612 12.0885 75.6119 12.1797 75.9504 12.2578L77.6691 12.6582C78.4569 12.847 79.0363 13.1725 79.4074 13.6348C79.7785 14.0905 79.9641 14.6374 79.9641 15.2754C79.9641 16.1803 79.6158 16.9062 78.9191 17.4531C78.229 17.9935 77.3111 18.2637 76.1652 18.2637Z" fill="#002433"/>
<path d="M23.625 52C23.625 45.5781 18.4219 40.375 12 40.375C5.57812 40.375 0.375 45.5781 0.375 52C0.375 57.8125 4.59375 62.6406 10.1719 63.4844V55.375H7.21875V52H10.1719V49.4688C10.1719 46.5625 11.9062 44.9219 14.5312 44.9219C15.8438 44.9219 17.1562 45.1562 17.1562 45.1562V48.0156H15.7031C14.25 48.0156 13.7812 48.9062 13.7812 49.8438V52H17.0156L16.5 55.375H13.7812V63.4844C19.3594 62.6406 23.625 57.8125 23.625 52Z" fill="#002433"/>
<path d="M65.5156 47.125C66.4531 46.4219 67.2969 45.5781 67.9531 44.5938C67.1094 44.9688 66.125 45.25 65.1406 45.3438C66.1719 44.7344 66.9219 43.7969 67.2969 42.625C66.3594 43.1875 65.2812 43.6094 64.2031 43.8438C63.2656 42.8594 62 42.2969 60.5938 42.2969C57.875 42.2969 55.6719 44.5 55.6719 47.2188C55.6719 47.5938 55.7188 47.9688 55.8125 48.3438C51.7344 48.1094 48.0781 46.1406 45.6406 43.1875C45.2188 43.8906 44.9844 44.7344 44.9844 45.6719C44.9844 47.3594 45.8281 48.8594 47.1875 49.75C46.3906 49.7031 45.5938 49.5156 44.9375 49.1406V49.1875C44.9375 51.5781 46.625 53.5469 48.875 54.0156C48.5 54.1094 48.0312 54.2031 47.6094 54.2031C47.2812 54.2031 47 54.1562 46.6719 54.1094C47.2812 56.0781 49.1094 57.4844 51.2656 57.5312C49.5781 58.8438 47.4688 59.6406 45.1719 59.6406C44.75 59.6406 44.375 59.5938 44 59.5469C46.1562 60.9531 48.7344 61.75 51.5469 61.75C60.5938 61.75 65.5156 54.2969 65.5156 47.7812C65.5156 47.5469 65.5156 47.3594 65.5156 47.125Z" fill="#002433"/>
<path d="M98.5 46.6094C95.5 46.6094 93.1094 49.0469 93.1094 52C93.1094 55 95.5 57.3906 98.5 57.3906C101.453 57.3906 103.891 55 103.891 52C103.891 49.0469 101.453 46.6094 98.5 46.6094ZM98.5 55.5156C96.5781 55.5156 94.9844 53.9688 94.9844 52C94.9844 50.0781 96.5312 48.5312 98.5 48.5312C100.422 48.5312 101.969 50.0781 101.969 52C101.969 53.9688 100.422 55.5156 98.5 55.5156ZM105.344 46.4219C105.344 45.7188 104.781 45.1562 104.078 45.1562C103.375 45.1562 102.812 45.7188 102.812 46.4219C102.812 47.125 103.375 47.6875 104.078 47.6875C104.781 47.6875 105.344 47.125 105.344 46.4219ZM108.906 47.6875C108.812 46 108.438 44.5 107.219 43.2812C106 42.0625 104.5 41.6875 102.812 41.5938C101.078 41.5 95.875 41.5 94.1406 41.5938C92.4531 41.6875 91 42.0625 89.7344 43.2812C88.5156 44.5 88.1406 46 88.0469 47.6875C87.9531 49.4219 87.9531 54.625 88.0469 56.3594C88.1406 58.0469 88.5156 59.5 89.7344 60.7656C91 61.9844 92.4531 62.3594 94.1406 62.4531C95.875 62.5469 101.078 62.5469 102.812 62.4531C104.5 62.3594 106 61.9844 107.219 60.7656C108.438 59.5 108.812 58.0469 108.906 56.3594C109 54.625 109 49.4219 108.906 47.6875ZM106.656 58.1875C106.328 59.125 105.578 59.8281 104.688 60.2031C103.281 60.7656 100 60.625 98.5 60.625C96.9531 60.625 93.6719 60.7656 92.3125 60.2031C91.375 59.8281 90.6719 59.125 90.2969 58.1875C89.7344 56.8281 89.875 53.5469 89.875 52C89.875 50.5 89.7344 47.2188 90.2969 45.8125C90.6719 44.9219 91.375 44.2188 92.3125 43.8438C93.6719 43.2812 96.9531 43.4219 98.5 43.4219C100 43.4219 103.281 43.2812 104.688 43.8438C105.578 44.1719 106.281 44.9219 106.656 45.8125C107.219 47.2188 107.078 50.5 107.078 52C107.078 53.5469 107.219 56.8281 106.656 58.1875Z" fill="#002433"/>
<path d="M140.625 40.375C134.203 40.375 129 45.5781 129 52C129 58.4219 134.203 63.625 140.625 63.625C147.047 63.625 152.25 58.4219 152.25 52C152.25 45.5781 147.047 40.375 140.625 40.375ZM146.297 48.3438L144.422 57.3438C144.281 58 143.906 58.1406 143.344 57.8594L140.438 55.7031L139.031 57.0625C138.891 57.2031 138.75 57.3438 138.469 57.3438L138.656 54.3906L144.047 49.5156C144.281 49.3281 144 49.1875 143.672 49.375L137.016 53.5938L134.156 52.7031C133.547 52.5156 133.547 52.0469 134.297 51.7656L145.5 47.4531C146.016 47.2656 146.484 47.5938 146.297 48.3438Z" fill="#002433"/>
</svg>
